<svg id="visual" viewBox="0 0 900 600" width="900" height="600" xmlns="http://www.w3.org/2000/svg" xmlns:xlink="http://www.w3.org/1999/xlink" version="1.1"><g stroke-width="1" stroke-linejoin="bevel"><path d="M408 299L357.5 351L430 359Z" fill="#e0f1fd" stroke="#e0f1fd"></path><path d="M278 229L321.5 358L357.5 351Z" fill="#e5f3fe" stroke="#e5f3fe"></path><path d="M357.5 351L415 521L430 359Z" fill="#e5f3fe" stroke="#e5f3fe"></path><path d="M218 316L278 378L321.5 358Z" fill="#fbfdff" stroke="#fbfdff"></path><path d="M296.5 501L415 521L357.5 351Z" fill="#e9f5fe" stroke="#e9f5fe"></path><path d="M430 359L520.5 270L408 299Z" fill="#d7edfc" stroke="#d7edfc"></path><path d="M520.5 270L508.5 228L408 299Z" fill="#f2f9fe" stroke="#f2f9fe"></path><path d="M408 299L278 229L357.5 351Z" fill="#f6fbff" stroke="#f6fbff"></path><path d="M298.5 194L278 229L408 299Z" fill="#e0f1fd" stroke="#e0f1fd"></path><path d="M460 170L298.5 194L408 299Z" fill="#fbfdff" stroke="#fbfdff"></path><path d="M111.5 257L218 316L278 229Z" fill="#edf7fe" stroke="#edf7fe"></path><path d="M278 229L218 316L321.5 358Z" fill="#f6fbff" stroke="#f6fbff"></path><path d="M508.5 228L460 170L408 299Z" fill="#ffffff" stroke="#ffffff"></path><path d="M276 481L321.5 358L278 378Z" fill="#ffffff" stroke="#ffffff"></path><path d="M296.5 501L357.5 351L321.5 358Z" fill="#e5f3fe" stroke="#e5f3fe"></path><path d="M430 359L579.5 385L520.5 270Z" fill="#f6fbff" stroke="#f6fbff"></path><path d="M94.5 381L276 481L278 378Z" fill="#ffffff" stroke="#ffffff"></path><path d="M415 521L579.5 385L430 359Z" fill="#f2f9fe" stroke="#f2f9fe"></path><path d="M649 113L609.5 95L508.5 228Z" fill="#d7edfc" stroke="#d7edfc"></path><path d="M276 481L296.5 501L321.5 358Z" fill="#fbfdff" stroke="#fbfdff"></path><path d="M460 170L345.5 127L298.5 194Z" fill="#e9f5fe" stroke="#e9f5fe"></path><path d="M609.5 95L414 87L460 170Z" fill="#f6fbff" stroke="#f6fbff"></path><path d="M460 170L414 87L345.5 127Z" fill="#edf7fe" stroke="#edf7fe"></path><path d="M473 600L530.5 553L415 521Z" fill="#d2ebfc" stroke="#d2ebfc"></path><path d="M415 521L530.5 553L579.5 385Z" fill="#ffffff" stroke="#ffffff"></path><path d="M294.5 0L274 107L345.5 127Z" fill="#dbeffd" stroke="#dbeffd"></path><path d="M345.5 127L274 107L298.5 194Z" fill="#f6fbff" stroke="#f6fbff"></path><path d="M298.5 194L274 107L278 229Z" fill="#edf7fe" stroke="#edf7fe"></path><path d="M239 600L348.5 600L296.5 501Z" fill="#ffffff" stroke="#ffffff"></path><path d="M296.5 501L348.5 600L415 521Z" fill="#ffffff" stroke="#ffffff"></path><path d="M348.5 600L473 600L415 521Z" fill="#ffffff" stroke="#ffffff"></path><path d="M530.5 553L676 412L579.5 385Z" fill="#dbeffd" stroke="#dbeffd"></path><path d="M579.5 385L717 316L520.5 270Z" fill="#f2f9fe" stroke="#f2f9fe"></path><path d="M508.5 228L609.5 95L460 170Z" fill="#edf7fe" stroke="#edf7fe"></path><path d="M75.5 196L111.5 257L129.5 97Z" fill="#d7edfc" stroke="#d7edfc"></path><path d="M218 316L94.5 381L278 378Z" fill="#fbfdff" stroke="#fbfdff"></path><path d="M276 481L239 600L296.5 501Z" fill="#e0f1fd" stroke="#e0f1fd"></path><path d="M473 600L547.5 600L530.5 553Z" fill="#d2ebfc" stroke="#d2ebfc"></path><path d="M530.5 553L725 488L676 412Z" fill="#d7edfc" stroke="#d7edfc"></path><path d="M111.5 257L94.5 381L218 316Z" fill="#d2ebfc" stroke="#d2ebfc"></path><path d="M141.5 600L239 600L276 481Z" fill="#e5f3fe" stroke="#e5f3fe"></path><path d="M676 412L717 316L579.5 385Z" fill="#f2f9fe" stroke="#f2f9fe"></path><path d="M649 113L508.5 228L520.5 270Z" fill="#e9f5fe" stroke="#e9f5fe"></path><path d="M717 316L649 113L520.5 270Z" fill="#ffffff" stroke="#ffffff"></path><path d="M604.5 0L457 0L609.5 95Z" fill="#dbeffd" stroke="#dbeffd"></path><path d="M609.5 95L457 0L414 87Z" fill="#e0f1fd" stroke="#e0f1fd"></path><path d="M414 87L294.5 0L345.5 127Z" fill="#e5f3fe" stroke="#e5f3fe"></path><path d="M0 452L75.5 473L94.5 381Z" fill="#dbeffd" stroke="#dbeffd"></path><path d="M94.5 381L75.5 473L276 481Z" fill="#d7edfc" stroke="#d7edfc"></path><path d="M129.5 97L111.5 257L278 229Z" fill="#edf7fe" stroke="#edf7fe"></path><path d="M0 271L0 363L94.5 381Z" fill="#ffffff" stroke="#ffffff"></path><path d="M129.5 97L278 229L274 107Z" fill="#d7edfc" stroke="#d7edfc"></path><path d="M457 0L294.5 0L414 87Z" fill="#e0f1fd" stroke="#e0f1fd"></path><path d="M263 0L129.5 97L274 107Z" fill="#fbfdff" stroke="#fbfdff"></path><path d="M673 600L725 488L530.5 553Z" fill="#d2ebfc" stroke="#d2ebfc"></path><path d="M676 412L817.5 449L717 316Z" fill="#e0f1fd" stroke="#e0f1fd"></path><path d="M294.5 0L263 0L274 107Z" fill="#f2f9fe" stroke="#f2f9fe"></path><path d="M75.5 473L141.5 600L276 481Z" fill="#e9f5fe" stroke="#e9f5fe"></path><path d="M717 316L729 154L649 113Z" fill="#fbfdff" stroke="#fbfdff"></path><path d="M694 0L604.5 0L609.5 95Z" fill="#f6fbff" stroke="#f6fbff"></path><path d="M834.5 284L729 154L717 316Z" fill="#e5f3fe" stroke="#e5f3fe"></path><path d="M547.5 600L673 600L530.5 553Z" fill="#f2f9fe" stroke="#f2f9fe"></path><path d="M0 271L94.5 381L111.5 257Z" fill="#edf7fe" stroke="#edf7fe"></path><path d="M75.5 473L0 600L141.5 600Z" fill="#f6fbff" stroke="#f6fbff"></path><path d="M694 0L609.5 95L649 113Z" fill="#dbeffd" stroke="#dbeffd"></path><path d="M0 223L0 271L75.5 196Z" fill="#fbfdff" stroke="#fbfdff"></path><path d="M75.5 196L0 271L111.5 257Z" fill="#d7edfc" stroke="#d7edfc"></path><path d="M755.5 600L765.5 512L725 488Z" fill="#f6fbff" stroke="#f6fbff"></path><path d="M725 488L817.5 449L676 412Z" fill="#d7edfc" stroke="#d7edfc"></path><path d="M0 363L0 452L94.5 381Z" fill="#edf7fe" stroke="#edf7fe"></path><path d="M0 137L0 223L75.5 196Z" fill="#d2ebfc" stroke="#d2ebfc"></path><path d="M765.5 512L817.5 449L725 488Z" fill="#e0f1fd" stroke="#e0f1fd"></path><path d="M817.5 449L834.5 284L717 316Z" fill="#d2ebfc" stroke="#d2ebfc"></path><path d="M729 154L694 0L649 113Z" fill="#edf7fe" stroke="#edf7fe"></path><path d="M69.5 0L0 137L129.5 97Z" fill="#ffffff" stroke="#ffffff"></path><path d="M129.5 97L0 137L75.5 196Z" fill="#dbeffd" stroke="#dbeffd"></path><path d="M765.5 512L900 541L817.5 449Z" fill="#edf7fe" stroke="#edf7fe"></path><path d="M673 600L755.5 600L725 488Z" fill="#fbfdff" stroke="#fbfdff"></path><path d="M745.5 0L694 0L729 154Z" fill="#edf7fe" stroke="#edf7fe"></path><path d="M834.5 284L835.5 189L729 154Z" fill="#e0f1fd" stroke="#e0f1fd"></path><path d="M263 0L69.5 0L129.5 97Z" fill="#ffffff" stroke="#ffffff"></path><path d="M0 452L0 600L75.5 473Z" fill="#d2ebfc" stroke="#d2ebfc"></path><path d="M818.5 86L745.5 0L729 154Z" fill="#edf7fe" stroke="#edf7fe"></path><path d="M835.5 189L818.5 86L729 154Z" fill="#e9f5fe" stroke="#e9f5fe"></path><path d="M900 541L900 372L817.5 449Z" fill="#f6fbff" stroke="#f6fbff"></path><path d="M817.5 449L900 372L834.5 284Z" fill="#ffffff" stroke="#ffffff"></path><path d="M834.5 284L900 219L835.5 189Z" fill="#fbfdff" stroke="#fbfdff"></path><path d="M835.5 189L900 51L818.5 86Z" fill="#e9f5fe" stroke="#e9f5fe"></path><path d="M900 372L900 280L834.5 284Z" fill="#e5f3fe" stroke="#e5f3fe"></path><path d="M900 280L900 219L834.5 284Z" fill="#edf7fe" stroke="#edf7fe"></path><path d="M69.5 0L0 0L0 137Z" fill="#f6fbff" stroke="#f6fbff"></path><path d="M755.5 600L900 541L765.5 512Z" fill="#d2ebfc" stroke="#d2ebfc"></path><path d="M755.5 600L900 600L900 541Z" fill="#dbeffd" stroke="#dbeffd"></path><path d="M900 219L900 51L835.5 189Z" fill="#dbeffd" stroke="#dbeffd"></path><path d="M818.5 86L900 0L745.5 0Z" fill="#e9f5fe" stroke="#e9f5fe"></path><path d="M900 51L900 0L818.5 86Z" fill="#ffffff" stroke="#ffffff"></path></g></svg>